{"accessors":[{"bufferView":3,"componentType":5126,"count":4273,"max":[3.4026949405670166,1.5730087757110596,5.490549087524414],"min":[-3.4026947021484375,0,-5.490549087524414],"type":"VEC3","byteOffset":0},{"bufferView":3,"byteOffset":51276,"componentType":5126,"count":4273,"max":[0.9991205334663391,0.999999463558197,0.9983682036399841],"min":[-0.9999038577079773,-0.9999985098838806,-0.9998752474784851],"type":"VEC3"},{"bufferView":4,"componentType":5126,"count":4273,"max":[0.999698281288147,0.9982119202613831,0.9999985694885254,1],"min":[-0.9999280571937561,-0.999337911605835,-0.9999166131019592,-1],"type":"VEC4","byteOffset":0},{"bufferView":2,"componentType":5126,"count":4273,"max":[0.981598973274231,0.9819167852401733],"min":[0.017441272735595703,0.017759054899215698],"type":"VEC2","byteOffset":0},{"bufferView":1,"componentType":5125,"count":13698,"max":[4272],"min":[0],"type":"SCALAR","byteOffset":0},{"bufferView":3,"byteOffset":102552,"componentType":5126,"count":204,"max":[3.0804755687713623,0.38486266136169434,-0.45498716831207275],"min":[-3.047729969024658,-0.25141024589538574,-6.583194255828857],"type":"VEC3"},{"bufferView":3,"byteOffset":105000,"componentType":5126,"count":204,"max":[0.9480921626091003,1,0.9480922222137451],"min":[-0.9480922222137451,-1,-0.9480921626091003],"type":"VEC3"},{"bufferView":4,"byteOffset":68368,"componentType":5126,"count":204,"max":[0.9999502897262573,0.9579654932022095,0.9752930998802185,1],"min":[-0.9752932190895081,-0.21761317551136017,-0.9752932190895081,1],"type":"VEC4"},{"bufferView":2,"byteOffset":34184,"componentType":5126,"count":204,"max":[0.9482020139694214,0.9819554090499878],"min":[0.02805708721280098,0.01779770851135254],"type":"VEC2"},{"bufferView":1,"byteOffset":54792,"componentType":5125,"count":720,"max":[203],"min":[0],"type":"SCALAR"},{"bufferView":3,"byteOffset":107448,"componentType":5126,"count":230,"max":[1.8591036796569824,1.3842605352401733,3.3781845569610596],"min":[-1.7929730415344238,0.2673664093017578,-0.28935354948043823],"type":"VEC3"},{"bufferView":3,"byteOffset":110208,"componentType":5126,"count":230,"max":[0.9887385964393616,0.9994173049926758,0.9990886449813843],"min":[-0.9255302548408508,-0.29691195487976074,-0.9987005591392517],"type":"VEC3"},{"bufferView":4,"byteOffset":71632,"componentType":5126,"count":230,"max":[0.999920129776001,0.3408633768558502,0.9997515082359314,1],"min":[-0.9999483227729797,-0.4129795730113983,-0.9997676610946655,1],"type":"VEC4"},{"bufferView":1,"byteOffset":57672,"componentType":5125,"count":1140,"max":[229],"min":[0],"type":"SCALAR"},{"bufferView":5,"componentType":5126,"count":3,"max":[1,0,0,0,0,1,0,0,0,0,1,0,0,0,0,1],"min":[1,0,0,0,0,1,0,0,0,0,1,0,0,-0.8588359951972961,-5.183152198791504,1],"type":"MAT4","byteOffset":0},{"bufferView":0,"componentType":5123,"count":4273,"max":[2,2,2,2],"min":[1,2,2,2],"type":"VEC4","byteOffset":0},{"bufferView":4,"byteOffset":75312,"componentType":5126,"count":4273,"max":[1,0,0,0],"min":[1,0,0,0],"type":"VEC4"},{"bufferView":6,"componentType":5126,"count":62,"max":[8.333333015441895],"min":[0.0416666679084301],"type":"SCALAR","byteOffset":0},{"bufferView":7,"componentType":5126,"count":62,"max":[0.12301968783140182,0.20254580676555634,0.0004508961574174464],"min":[-0.26986029744148254,-1.5006314516067505,-3.4838991165161133],"type":"VEC3","byteOffset":0},{"bufferView":6,"byteOffset":248,"componentType":5126,"count":8,"max":[8.333333015441895],"min":[0.0416666679084301],"type":"SCALAR"},{"bufferView":7,"byteOffset":744,"componentType":5126,"count":8,"max":[1,1,1],"min":[0.009999999776482582,0.009999999776482582,0.009999999776482582],"type":"VEC3"},{"bufferView":6,"byteOffset":280,"componentType":5126,"count":195,"max":[8.333333015441895],"min":[0.0416666679084301],"type":"SCALAR"},{"bufferView":8,"componentType":5126,"count":195,"max":[0.10951248556375504,0.018573351204395294,0.16945825517177582,1],"min":[-0.09080904722213745,-0.0320119746029377,-0.09863846004009247,0.985081672668457],"type":"VEC4","byteOffset":0},{"bufferView":6,"byteOffset":1060,"componentType":5126,"count":2,"max":[8.333333015441895],"min":[0.0416666679084301],"type":"SCALAR"},{"bufferView":7,"byteOffset":840,"componentType":5126,"count":2,"max":[0,0,0],"min":[0,0,0],"type":"VEC3"},{"bufferView":6,"byteOffset":1068,"componentType":5126,"count":2,"max":[8.333333015441895],"min":[0.0416666679084301],"type":"SCALAR"},{"bufferView":7,"byteOffset":864,"componentType":5126,"count":2,"max":[1,1,1],"min":[1,1,1],"type":"VEC3"},{"bufferView":6,"byteOffset":1076,"componentType":5126,"count":188,"max":[8.333333015441895],"min":[0.0416666679084301],"type":"SCALAR"},{"bufferView":8,"byteOffset":3120,"componentType":5126,"count":188,"max":[0.7337217330932617,5.5470735186528486e-17,7.253312533928025e-17,1],"min":[-0.0015506340423598886,-1.1097913025198529e-16,-6.071532165918825e-17,0.6794500946998596],"type":"VEC4"},{"bufferView":6,"byteOffset":1828,"componentType":5126,"count":60,"max":[8.333333015441895],"min":[0.0416666679084301],"type":"SCALAR"},{"bufferView":7,"byteOffset":888,"componentType":5126,"count":60,"max":[0.05421686917543411,-0.4343385398387909,-3.647008180618286],"min":[-0.037112411111593246,-0.6926400661468506,-6.234671115875244],"type":"VEC3"},{"bufferView":6,"byteOffset":2068,"componentType":5126,"count":61,"max":[8.333333015441895],"min":[0.0416666679084301],"type":"SCALAR"},{"bufferView":7,"byteOffset":1608,"componentType":5126,"count":61,"max":[1.6845178604125977,0.9678114652633667,1.6845178604125977],"min":[9.999999960041972e-13,9.999999960041972e-13,9.999999960041972e-13],"type":"VEC3"},{"bufferView":6,"byteOffset":2312,"componentType":5126,"count":126,"max":[8.333333015441895],"min":[0.0416666679084301],"type":"SCALAR"},{"bufferView":8,"byteOffset":6128,"componentType":5126,"count":126,"max":[5.04870977273496e-17,2.52435488636748e-17,9.82131856840054e-17,1],"min":[-7.573064824538563e-17,-1.009741954546992e-16,-7.809723183023454e-17,1],"type":"VEC4"},{"bufferView":6,"byteOffset":2816,"componentType":5126,"count":65,"max":[8.333333015441895],"min":[1.875],"type":"SCALAR"},{"bufferView":7,"byteOffset":2340,"componentType":5126,"count":65,"max":[0,6.61319637298584,5.183152198791504],"min":[0,0.85883629322052,5.183152198791504],"type":"VEC3"},{"bufferView":6,"byteOffset":3076,"componentType":5126,"count":2,"max":[8.333333015441895],"min":[1.875],"type":"SCALAR"},{"bufferView":7,"byteOffset":3120,"componentType":5126,"count":2,"max":[1,1,1],"min":[1,1,1],"type":"VEC3"},{"bufferView":6,"byteOffset":3084,"componentType":5126,"count":151,"max":[8.333333015441895],"min":[1.875],"type":"SCALAR"},{"bufferView":8,"byteOffset":8144,"componentType":5126,"count":151,"max":[0.17596173286437988,0.13772228360176086,1,1],"min":[-0.18241433799266815,-0.7071067690849304,0,-0.016274528577923775],"type":"VEC4"}],"animations":[{"channels":[{"sampler":0,"target":{"node":11,"path":"translation"}},{"sampler":1,"target":{"node":11,"path":"scale"}},{"sampler":2,"target":{"node":11,"path":"rotation"}},{"sampler":3,"target":{"node":10,"path":"translation"}},{"sampler":4,"target":{"node":10,"path":"scale"}},{"sampler":5,"target":{"node":10,"path":"rotation"}},{"sampler":6,"target":{"node":13,"path":"translation"}},{"sampler":7,"target":{"node":13,"path":"scale"}},{"sampler":8,"target":{"node":13,"path":"rotation"}},{"sampler":9,"target":{"node":9,"path":"translation"}},{"sampler":10,"target":{"node":9,"path":"scale"}},{"sampler":11,"target":{"node":9,"path":"rotation"}}],"name":"Take 001","samplers":[{"input":17,"interpolation":"LINEAR","output":18},{"input":19,"interpolation":"LINEAR","output":20},{"input":21,"interpolation":"LINEAR","output":22},{"input":23,"interpolation":"LINEAR","output":24},{"input":25,"interpolation":"LINEAR","output":26},{"input":27,"interpolation":"LINEAR","output":28},{"input":29,"interpolation":"LINEAR","output":30},{"input":31,"interpolation":"LINEAR","output":32},{"input":33,"interpolation":"LINEAR","output":34},{"input":35,"interpolation":"LINEAR","output":36},{"input":37,"interpolation":"LINEAR","output":38},{"input":39,"interpolation":"LINEAR","output":40}]}],"asset":{"extras":{"author":"Damco (https://sketchfab.com/jondameron5)","license":"CC-BY-4.0 (http://creativecommons.org/licenses/by/4.0/)","source":"https://sketchfab.com/models/4876d1a00a8d481fa714850d9e0702a1","title":"Animated Waffle Iron"},"generator":"Sketchfab-3.18.7","version":"2.0"},"bufferViews":[{"buffer":0,"byteLength":34184,"byteOffset":0,"byteStride":8,"name":"shortBufferViews","target":34962},{"buffer":0,"byteLength":62232,"byteOffset":34184,"name":"floatBufferViews","target":34963},{"buffer":0,"byteLength":35816,"byteOffset":96416,"byteStride":8,"name":"floatBufferViews","target":34962},{"buffer":0,"byteLength":112968,"byteOffset":132232,"byteStride":12,"name":"floatBufferViews","target":34962},{"buffer":0,"byteLength":143680,"byteOffset":245200,"byteStride":16,"name":"floatBufferViews","target":34962},{"buffer":0,"byteLength":192,"byteOffset":388880,"byteStride":64,"name":"floatBufferViews"},{"buffer":0,"byteLength":3688,"byteOffset":389072,"name":"floatBufferViews"},{"buffer":0,"byteLength":3144,"byteOffset":392760,"byteStride":12,"name":"floatBufferViews"},{"buffer":0,"byteLength":10560,"byteOffset":395904,"byteStride":16,"name":"floatBufferViews"},{"buffer":0,"byteOffset":406464,"byteLength":87852},{"buffer":0,"byteOffset":494316,"byteLength":151629}],"buffers":[{"byteLength":645948,"uri":"data:application/octet-stream;base64,"}],"images":[{"bufferView":9,"mimeType":"image/png"},{"bufferView":10,"mimeType":"image/png"}],"materials":[{"doubleSided":true,"name":"wafBot_defaultMat1","pbrMetallicRoughness":{"baseColorFactor":[1,1,1,1],"baseColorTexture":{"index":1,"texCoord":0},"metallicFactor":0.65,"roughnessFactor":0.51},"emissiveFactor":[0,0,0],"alphaMode":"OPAQUE"},{"doubleSided":true,"name":"waffleMat","pbrMetallicRoughness":{"baseColorFactor":[1,1,1,1],"baseColorTexture":{"index":0,"texCoord":0},"metallicFactor":0,"roughnessFactor":1},"emissiveFactor":[0,0,0],"alphaMode":"OPAQUE"},{"doubleSided":true,"name":"batterMat","pbrMetallicRoughness":{"baseColorFactor":[0.804,0.684796,0.457476,1],"metallicFactor":0.52,"roughnessFactor":0.54},"emissiveFactor":[0,0,0],"alphaMode":"OPAQUE"}],"meshes":[{"name":"waffleMaker_wafBot_defaultMat1_0","primitives":[{"attributes":{"JOINTS_0":15,"NORMAL":1,"POSITION":0,"TANGENT":2,"TEXCOORD_0":3,"WEIGHTS_0":16},"indices":4,"material":0,"mode":4}]},{"name":"waffle_waffleMat_0","primitives":[{"attributes":{"NORMAL":6,"POSITION":5,"TANGENT":7,"TEXCOORD_0":8},"indices":9,"material":1,"mode":4}]},{"name":"batter_batterMat_0","primitives":[{"attributes":{"NORMAL":11,"POSITION":10,"TANGENT":12},"indices":13,"material":2,"mode":4}]}],"nodes":[{"children":[1],"name":"RootNode (gltf orientation matrix)","rotation":[-0.7071067811865475,0,0,0.7071067811865476],"translation":[0,0,0],"scale":[1,1,1]},{"children":[2],"name":"RootNode (model correction matrix)"},{"children":[3],"matrix":[1,0,0,0,0,0,1,0,0,-1,0,0,0,0,0,1],"name":"d742d176e8f04669be5fdd595ba6b8a9.fbx"},{"children":[4],"name":""},{"children":[5],"name":"RootNode"},{"children":[6],"name":"waffleMaker"},{"children":[7,8,15],"name":""},{"children":[9],"name":"_rootJoint"},{"mesh":0,"name":"","skin":0},{"children":[10,13],"name":"waffJnt01_00","translation":[0,0.85883629322052,5.183152198791504],"rotation":[0,0,0,1],"scale":[1,1,1]},{"children":[11],"name":"waffJnt02_01","rotation":[0.5,0,0,0.8660253882408142],"translation":[0,0,0],"scale":[1,1,1]},{"children":[12],"name":"waffle","scale":[0.009999999776482582,0.009999999776482582,0.009999999776482582],"translation":[0.016208793967962265,0.06605914980173111,-3.4838991165161133],"rotation":[0,0,0,1]},{"mesh":1,"name":"waffle_waffleMat_0"},{"children":[14],"name":"batter","scale":[1.227933645248413,0.8763619065284729,1.227933645248413],"translation":[-0.012357846833765507,-0.6682328581809998,-5.533291816711426],"rotation":[0,0,0,1]},{"mesh":2,"name":"batter_batterMat_0"},{"name":"waffleMaker"}],"samplers":[{"magFilter":9729,"minFilter":9987,"wrapS":10497,"wrapT":10497}],"scene":0,"scenes":[{"name":"OSG_Scene","nodes":[0]}],"skins":[{"inverseBindMatrices":14,"joints":[7,9,10],"skeleton":7}],"textures":[{"sampler":0,"source":0},{"sampler":0,"source":1}]}
